<?xml version="1.0" standalone="no"?>
<!DOCTYPE svg PUBLIC "-//W3C//DTD SVG 20010904//EN"
 "http://www.w3.org/TR/2001/REC-SVG-20010904/DTD/svg10.dtd">
<svg version="1.0" xmlns="http://www.w3.org/2000/svg"
 width="512.000000pt" height="512.000000pt" viewBox="0 0 512.000000 512.000000"
 preserveAspectRatio="xMidYMid meet">
<metadata>
Created by potrace 1.16, written by Peter Selinger 2001-2019
</metadata>
<g transform="translate(0.000000,512.000000) scale(0.100000,-0.100000)"
fill="#000000" stroke="none">
<path d="M2323 5109 c-346 -31 -696 -140 -1011 -316 -62 -35 -118 -64 -125
-65 -7 -1 42 -4 108 -8 l120 -5 -103 -74 c-56 -41 -102 -79 -102 -84 0 -5 16
-60 36 -123 20 -64 35 -117 33 -119 -2 -2 -49 30 -104 71 -55 41 -103 74 -106
74 -3 0 -42 -26 -86 -59 -44 -32 -92 -66 -106 -76 l-27 -17 15 49 c8 26 23 74
34 106 l20 58 -27 -20 c-47 -34 -276 -273 -342 -356 -34 -44 -66 -81 -71 -83
-5 -2 -9 -8 -9 -14 0 -5 -9 -23 -20 -38 l-20 -29 37 -3 38 -3 -72 -52 c-51
-37 -81 -68 -102 -104 l-28 -50 29 -96 c16 -52 28 -97 26 -99 -2 -2 -29 14
-60 36 l-55 39 -13 -27 c-6 -15 -25 -59 -40 -98 l-29 -72 37 -111 36 -111 135
0 135 0 -104 -76 c-58 -42 -107 -79 -110 -81 -2 -2 14 -60 37 -128 23 -69 39
-125 36 -125 -3 0 -52 34 -109 76 l-103 75 -64 -45 c-74 -53 -73 -49 -83 -243
l-7 -123 2563 0 2563 0 -6 128 c-7 145 -28 304 -60 442 l-23 95 -1237 3 -1237
2 0 335 0 335 1090 2 1090 3 -46 70 c-26 39 -72 103 -103 143 -31 41 -65 85
-76 100 -25 33 -273 278 -319 315 l-34 27 -801 0 -801 0 0 280 0 280 -72 -1
c-40 -1 -114 -5 -165 -10z m-293 -264 l42 -125 131 0 c152 -1 151 9 4 -97
l-86 -62 40 -118 c21 -65 38 -121 37 -125 -2 -3 -48 27 -103 67 -55 41 -103
74 -106 75 -4 0 -53 -34 -110 -75 -57 -41 -104 -73 -106 -72 -1 2 16 59 38
126 22 68 36 127 31 130 -5 3 -52 38 -106 76 l-97 70 133 5 132 5 39 123 c22
67 40 122 42 122 2 0 22 -56 45 -125z m-915 -752 l37 -113 129 0 c71 0 129 -3
129 -7 0 -5 -43 -39 -96 -77 -53 -38 -98 -75 -101 -82 -3 -7 12 -63 32 -124
20 -61 35 -114 32 -116 -3 -3 -51 28 -107 70 l-102 75 -107 -79 c-58 -43 -107
-77 -108 -76 -2 1 15 56 37 121 22 66 40 122 40 126 0 4 -48 43 -107 86 l-108
78 136 3 135 3 39 119 c22 66 42 117 46 112 3 -4 23 -58 44 -119z m915 4 l36
-112 132 -3 c73 -1 132 -6 132 -10 0 -4 -47 -40 -104 -81 l-103 -73 38 -121
c21 -67 37 -123 35 -125 -2 -2 -50 30 -107 71 l-102 75 -109 -79 c-124 -91
-119 -97 -61 76 33 97 33 100 15 115 -11 8 -59 44 -108 80 l-89 65 135 3 135
3 38 120 c21 67 42 118 45 114 4 -3 23 -56 42 -118z m-916 -749 l37 -117 132
-3 132 -3 -89 -65 c-48 -36 -96 -70 -104 -76 -15 -11 -13 -24 21 -134 21 -67
37 -124 35 -125 -2 -2 -49 30 -106 72 l-103 75 -106 -77 c-58 -42 -107 -75
-108 -73 -2 2 15 59 37 127 22 68 36 127 30 130 -5 3 -52 38 -106 76 l-97 70
133 3 133 3 39 125 c22 68 43 121 47 117 4 -4 23 -61 43 -125z m916 7 l41
-124 132 -3 132 -3 -107 -78 -107 -77 40 -117 c21 -65 38 -121 37 -125 -2 -4
-49 27 -106 68 -62 45 -108 72 -115 67 -7 -4 -54 -38 -106 -75 -52 -38 -96
-67 -97 -65 -2 2 14 57 36 122 22 65 37 121 35 126 -3 4 -51 41 -106 81 l-101
73 133 5 133 5 40 123 c22 67 41 122 42 122 1 0 21 -56 44 -125z"/>
<path d="M90 1882 c0 -17 90 -272 122 -347 39 -89 114 -235 142 -277 l18 -28
2187 0 c2070 0 2187 1 2201 18 20 22 91 161 143 277 36 81 127 337 127 357 0
4 -1111 8 -2470 8 -1359 0 -2470 -4 -2470 -8z"/>
<path d="M976 545 c4 -8 12 -15 18 -15 7 0 25 -13 41 -30 16 -16 33 -30 37
-30 5 0 41 -22 81 -48 79 -53 185 -113 334 -190 46 -24 239 -95 343 -126 269
-80 413 -100 740 -100 253 0 304 5 535 49 43 8 214 57 285 81 133 46 398 167
470 215 71 48 235 156 261 172 16 11 29 23 29 28 0 5 -644 9 -1590 9 -1409 0
-1589 -2 -1584 -15z"/>
</g>
</svg>
