<svg height="512" viewBox="0 0 512 512" width="512" xmlns="http://www.w3.org/2000/svg"><g id="BULINE"><circle cx="256" cy="256" fill="#27273d" r="256"/></g><g id="Icons"><path d="m496.14 167.12h-480.29c36.15-97.58 130.01-167.12 240.15-167.12s204 69.54 240.14 167.12z" fill="#e88032"/><path d="m496.14 344.87h-480.29a256.53 256.53 0 0 1 0-177.75h480.29a253 253 0 0 1 8.91 29.41 257.31 257.31 0 0 1 -8.91 148.34z" fill="#fff"/><path d="m256 512a256.09 256.09 0 0 1 -240.15-167.13h480.29a252.21 252.21 0 0 1 -13.05 29.41 256 256 0 0 1 -227.09 137.72z" fill="#00b564"/><path d="m289.5 2.17c-95.38 12.47-174.24 77.43-206.65 165h-67c36.15-97.63 130.01-167.17 240.15-167.17a259.05 259.05 0 0 1 33.5 2.17z" fill="#d8712b"/><path d="m67 256a255.41 255.41 0 0 0 15.85 88.87h-67a256.53 256.53 0 0 1 0-177.75h67a252.91 252.91 0 0 0 -8.85 29.41 256.16 256.16 0 0 0 -7 59.47z" fill="#e2e2e2"/><path d="m289.5 509.83a258.82 258.82 0 0 1 -33.5 2.17 256.09 256.09 0 0 1 -240.15-167.13h67a256.15 256.15 0 0 0 206.65 165z" fill="#049b53"/><circle cx="408.07" cy="96.45" fill="#ef9050" r="16.28"/><circle cx="384.09" cy="72.47" fill="#ef9050" r="11.53"/><circle cx="256" cy="256" fill="#3e436d" r="79.86"/><path d="m318.86 249.5-3.73-.83c0-.3-.07-.6-.11-.89l3.38-1.78a2.82 2.82 0 0 0 1.43-3.24l-1.93-7.22a2.84 2.84 0 0 0 -2.86-2.1l-3.81.16c-.11-.28-.22-.56-.34-.84l2.8-2.57a2.82 2.82 0 0 0 .54-3.5l-3.74-6.48a2.82 2.82 0 0 0 -3.3-1.28l-3.64 1.14c-.18-.24-.37-.47-.55-.7l2.05-3.23a2.84 2.84 0 0 0 -.39-3.53l-5.28-5.28a2.84 2.84 0 0 0 -3.53-.39l-3.23 2.06-.7-.55 1.14-3.64a2.82 2.82 0 0 0 -1.28-3.3l-6.48-3.74a2.82 2.82 0 0 0 -3.5.54l-2.57 2.8-.84-.34.16-3.81a2.84 2.84 0 0 0 -2.1-2.86l-7.22-1.93a2.82 2.82 0 0 0 -3.23 1.43l-1.78 3.4-.89-.11-.83-3.73a2.82 2.82 0 0 0 -2.76-2.22h-7.48a2.82 2.82 0 0 0 -2.76 2.22l-.83 3.73-.89.11-1.78-3.4a2.82 2.82 0 0 0 -3.24-1.43l-7.22 1.93a2.84 2.84 0 0 0 -2.1 2.86l.16 3.81-.84.34-2.57-2.8a2.82 2.82 0 0 0 -3.5-.54l-6.48 3.74a2.82 2.82 0 0 0 -1.28 3.3l1.14 3.64-.7.55-3.22-2a2.84 2.84 0 0 0 -3.53.39l-5.28 5.28a2.84 2.84 0 0 0 -.39 3.53l2.05 3.23c-.18.23-.37.46-.55.7l-3.64-1.14a2.82 2.82 0 0 0 -3.3 1.28l-3.74 6.48a2.82 2.82 0 0 0 .54 3.5l2.8 2.57c-.12.28-.23.56-.34.84l-3.81-.16a2.84 2.84 0 0 0 -2.86 2.1l-1.93 7.22a2.82 2.82 0 0 0 1.43 3.18l3.38 1.77c0 .29-.07.59-.11.89l-3.73.83a2.82 2.82 0 0 0 -2.22 2.76v7.48a2.82 2.82 0 0 0 2.22 2.76l3.73.83c0 .3.07.6.11.89l-3.38 1.79a2.82 2.82 0 0 0 -1.43 3.24l1.93 7.22a2.84 2.84 0 0 0 2.86 2.1l3.81-.16c.11.28.22.56.34.84l-2.8 2.57a2.82 2.82 0 0 0 -.54 3.5l3.74 6.48a2.82 2.82 0 0 0 3.3 1.28l3.64-1.14c.18.24.37.47.55.7l-2 3.22a2.84 2.84 0 0 0 .39 3.53l5.28 5.28a2.84 2.84 0 0 0 3.53.39l3.23-2.05.7.55-1.14 3.64a2.82 2.82 0 0 0 1.28 3.3l6.48 3.74a2.82 2.82 0 0 0 3.5-.54l2.57-2.8.84.34-.16 3.81a2.84 2.84 0 0 0 2.1 2.86l7.22 1.93a2.82 2.82 0 0 0 3.18-1.43l1.77-3.38.89.11.83 3.73a2.82 2.82 0 0 0 2.76 2.22h7.48a2.82 2.82 0 0 0 2.76-2.22l.83-3.73.89-.11 1.79 3.38a2.82 2.82 0 0 0 3.24 1.43l7.22-1.93a2.84 2.84 0 0 0 2.1-2.86l-.16-3.81.84-.34 2.57 2.8a2.82 2.82 0 0 0 3.5.54l6.48-3.74a2.82 2.82 0 0 0 1.28-3.3l-1.14-3.64.7-.55 3.23 2.05a2.84 2.84 0 0 0 3.53-.39l5.28-5.28a2.84 2.84 0 0 0 .39-3.53l-2.06-3.23c.18-.23.37-.46.55-.7l3.64 1.14a2.82 2.82 0 0 0 3.3-1.28l3.74-6.48a2.82 2.82 0 0 0 -.54-3.5l-2.8-2.57c.12-.28.23-.56.34-.84l3.81.16a2.84 2.84 0 0 0 2.86-2.1l1.93-7.22a2.82 2.82 0 0 0 -1.43-3.23l-3.4-1.78c0-.29.07-.59.11-.89l3.73-.83a2.82 2.82 0 0 0 2.22-2.76v-7.48a2.82 2.82 0 0 0 -2.2-2.76z" fill="#fff"/><g fill="#3e436d"><path d="m268.28 256a4.11 4.11 0 0 1 0 .7 10 10 0 0 1 -.24 1.91 11.84 11.84 0 0 1 -.9 2.63 12.32 12.32 0 0 1 -1.18 2 11.87 11.87 0 0 1 -1.88 2 10.11 10.11 0 0 1 -1.45 1.08 11.54 11.54 0 0 1 -2.5 1.21 10.8 10.8 0 0 1 -2.71.63 10.63 10.63 0 0 1 -2.76 0 11.22 11.22 0 0 1 -2.15-.43 11 11 0 0 1 -2.54-1.1 11.59 11.59 0 0 1 -1.7-1.16 11.12 11.12 0 0 1 -1.93-2 10.74 10.74 0 0 1 -1.3-2 11.18 11.18 0 0 1 -.93-2.62 10.14 10.14 0 0 1 -.31-2.14 4.11 4.11 0 0 1 0-.7 12.87 12.87 0 0 1 .18-2.08 9.64 9.64 0 0 1 .47-1.83 10.66 10.66 0 0 1 1.18-2.51 9.71 9.71 0 0 1 1.18-1.62 11.87 11.87 0 0 1 2.05-1.88 12.57 12.57 0 0 1 4.81-2.13c.35-.06.68-.11 1-.15s.91-.08 1.38-.08.93 0 1.38.08a9 9 0 0 1 1.63.3 10.74 10.74 0 0 1 2.6 1 10.61 10.61 0 0 1 1.89 1.21 10.35 10.35 0 0 1 2 1.93 9.27 9.27 0 0 1 1.1 1.55 11.55 11.55 0 0 1 1.13 2.53 10.51 10.51 0 0 1 .39 1.61 12.87 12.87 0 0 1 .11 2.06z"/><path d="m268.28 256a4.11 4.11 0 0 1 0 .7 10 10 0 0 1 -.24 1.91 11.84 11.84 0 0 1 -.9 2.63 12.32 12.32 0 0 1 -1.18 2 11.87 11.87 0 0 1 -1.88 2 10.11 10.11 0 0 1 -1.45 1.08 11.54 11.54 0 0 1 -2.5 1.21 10.8 10.8 0 0 1 -2.71.63 10.63 10.63 0 0 1 -2.76 0 11.22 11.22 0 0 1 -2.15-.43 11 11 0 0 1 -2.54-1.1 11.59 11.59 0 0 1 -1.7-1.16 11.12 11.12 0 0 1 -1.93-2 10.74 10.74 0 0 1 -1.3-2 11.18 11.18 0 0 1 -.93-2.62 10.14 10.14 0 0 1 -.31-2.14 4.11 4.11 0 0 1 0-.7 12.87 12.87 0 0 1 .18-2.08 9.64 9.64 0 0 1 .47-1.83 10.66 10.66 0 0 1 1.18-2.51 9.71 9.71 0 0 1 1.18-1.62 11.87 11.87 0 0 1 2.05-1.88 12.57 12.57 0 0 1 4.81-2.13c.35-.06.68-.11 1-.15s.91-.08 1.38-.08.93 0 1.38.08a9 9 0 0 1 1.63.3 10.74 10.74 0 0 1 2.6 1 10.61 10.61 0 0 1 1.89 1.21 10.35 10.35 0 0 1 2 1.93 9.27 9.27 0 0 1 1.1 1.55 11.55 11.55 0 0 1 1.13 2.53 10.51 10.51 0 0 1 .39 1.61 12.87 12.87 0 0 1 .11 2.06z"/><path d="m239 256.7h-34.29a1.39 1.39 0 1 1 0-2.78h34.37a17.87 17.87 0 0 0 -.08 2.08z"/><path d="m240.56 263.25-31.63 12.75a1.45 1.45 0 0 1 -.51.1 1.39 1.39 0 0 1 -.52-2.68l31.7-12.76a17.42 17.42 0 0 0 .96 2.59z"/><path d="m207.77 235.84a1.41 1.41 0 0 1 1.81-.77l31.5 12.69a16.06 16.06 0 0 0 -1.15 2.53l-31.38-12.64a1.4 1.4 0 0 1 -.78-1.81z"/><path d="m244.84 268.89-24.38 24.36a1.39 1.39 0 0 1 -1 .42 1.4 1.4 0 0 1 -1-2.38l24.39-24.39a16.65 16.65 0 0 0 1.99 1.99z"/><path d="m219 220.21a1.37 1.37 0 0 1 0-2 1.39 1.39 0 0 1 1.95 0l24.42 24.42a17.36 17.36 0 0 0 -2 1.9z"/><path d="m248.13 271.12a14.67 14.67 0 0 0 2.55 1.08l-12.56 31.18a1.41 1.41 0 0 1 -1.3.87 1.65 1.65 0 0 1 -.52-.1 1.41 1.41 0 0 1 -.76-1.82z"/><path d="m236.19 208.22a1.38 1.38 0 1 1 2.56-1l13 32.29a15.6 15.6 0 0 0 -2.62.91z"/><path d="m256 239c-.47 0-.93 0-1.38.05v-34.34a1.38 1.38 0 1 1 2.76 0v34.29c-.45 0-.91 0-1.38 0z"/><path d="m256 273.05c.47 0 .93 0 1.38-.05v34.29a1.38 1.38 0 1 1 -2.76 0v-34.29c.45 0 .91.05 1.38.05z"/><path d="m263.4 240.63a17.57 17.57 0 0 0 -2.59-1l13.07-32.44a1.39 1.39 0 1 1 2.58 1z"/><path d="m277.1 302.33a1.39 1.39 0 0 1 -.77 1.82 1.5 1.5 0 0 1 -.52.1 1.39 1.39 0 0 1 -1.28-.87l-12.64-31.38a15.89 15.89 0 0 0 2.51-1.16z"/><path d="m266.91 242.89 24.14-24.14a1.38 1.38 0 0 1 1.95 2l-24.12 24.13a16.5 16.5 0 0 0 -1.97-1.99z"/><path d="m293.5 290.8a1.39 1.39 0 0 1 -2 2l-24.11-24.11a17.36 17.36 0 0 0 1.9-2z"/><path d="m271 248 32-12.91a1.39 1.39 0 0 1 1 2.58l-32 12.88a14.8 14.8 0 0 0 -1-2.55z"/><path d="m305.51 275.23a1.41 1.41 0 0 1 -1.28.87 1.66 1.66 0 0 1 -.53-.1l-32.16-13a18 18 0 0 0 .93-2.61l32.28 13a1.4 1.4 0 0 1 .76 1.84z"/><path d="m308.69 255.3a1.4 1.4 0 0 1 -1.4 1.4h-34.29c0-.23 0-.47 0-.7a17.87 17.87 0 0 0 -.13-2.08h34.37a1.39 1.39 0 0 1 1.45 1.38z"/></g></g></svg>